/* XPM */
static char *result[] = {
/* columns rows colors chars-per-pixel */
"64 64 250 2 ",
"   c #7ECB33",
".  c #7FCC32",
"X  c #7FC836",
"o  c #85DB2E",
"O  c #87DE2F",
"+  c #81CC36",
"@  c #85CD3D",
"#  c #85CE3C",
"$  c #86CE3D",
"%  c #81D030",
"&  c #82D430",
"*  c #86DA32",
"=  c #88DF31",
"-  c #89DD34",
";  c #86D439",
":  c #87D638",
">  c #8AE72D",
",  c #89E928",
"<  c #83B84A",
"1  c #86BA4F",
"2  c #81A657",
"3  c #81A757",
"4  c #80A458",
"5  c #81A758",
"6  c #83A859",
"7  c #82A959",
"8  c #84AB59",
"9  c #85AC5A",
"0  c #85AD5A",
"q  c #87AD5D",
"w  c #87AE5C",
"e  c #88AF5E",
"r  c #89AF5F",
"t  c #8ABC55",
"y  c #88B15B",
"u  c #88B05C",
"i  c #88B15C",
"p  c #88B05D",
"a  c #89B15D",
"s  c #88B25C",
"d  c #89B25C",
"f  c #89B35C",
"g  c #89B25D",
"h  c #89B35D",
"j  c #8AB35C",
"k  c #8AB25D",
"l  c #8AB35D",
"z  c #89B45C",
"x  c #8AB45D",
"c  c #8AB55D",
"v  c #8BB55D",
"b  c #8BB65C",
"n  c #8CB45F",
"m  c #8CB65E",
"M  c #8AB858",
"N  c #8CBB5A",
"B  c #8CBA5B",
"V  c #8FBB5F",
"C  c #8FBD5E",
"Z  c #8FBC5F",
"A  c #90BD5F",
"S  c #91BF5F",
"D  c #8CB560",
"F  c #8FBB60",
"G  c #8FB862",
"H  c #8FB864",
"J  c #90BD60",
"K  c #91BD60",
"L  c #90BC61",
"P  c #90BD61",
"I  c #91BE60",
"U  c #91BF60",
"Y  c #92BF61",
"T  c #91BD62",
"R  c #91BC63",
"E  c #92BD63",
"W  c #92BE62",
"Q  c #93BD64",
"!  c #93BF64",
"~  c #94BE66",
"^  c #99BE70",
"/  c #84C540",
"(  c #85C840",
")  c #89CF41",
"_  c #89CE42",
"`  c #93D64F",
"'  c #97DD4F",
"]  c #8DC156",
"[  c #A3EC59",
"{  c #92C060",
"}  c #92C160",
"|  c #92C161",
" . c #93C161",
".. c #93C260",
"X. c #93C261",
"o. c #93C361",
"O. c #94C261",
"+. c #95C363",
"@. c #94C461",
"#. c #95C561",
"$. c #95C661",
"%. c #96C761",
"&. c #94C462",
"*. c #95C462",
"=. c #95C562",
"-. c #96C563",
";. c #95C663",
":. c #96C762",
">. c #96C663",
",. c #96C763",
"<. c #97C763",
"1. c #96C464",
"2. c #96C664",
"3. c #97C764",
"4. c #96C860",
"5. c #97C962",
"6. c #97C863",
"7. c #97C963",
"8. c #98C963",
"9. c #99CC63",
"0. c #98C864",
"q. c #98C964",
"w. c #99C965",
"e. c #98CA64",
"r. c #99CA64",
"t. c #99CB64",
"y. c #98CA65",
"u. c #99CA65",
"i. c #99CB65",
"p. c #9ACB65",
"a. c #98C866",
"s. c #9AC967",
"d. c #9ACA66",
"f. c #9BCC66",
"g. c #9BCD66",
"h. c #9CCD67",
"j. c #9CCE66",
"k. c #9DCE67",
"l. c #97C069",
"z. c #9CCC68",
"x. c #9DCE68",
"c. c #9DCF68",
"v. c #9ECF69",
"b. c #9DD066",
"n. c #9DD166",
"m. c #9ED067",
"M. c #9ED168",
"N. c #9ED069",
"B. c #9FD069",
"V. c #9FD169",
"C. c #9FD268",
"Z. c #9FD16A",
"A. c #9FD16B",
"S. c #9BC171",
"D. c #9DC670",
"F. c #9DC472",
"G. c #9EC772",
"H. c #9CC174",
"J. c #A0CF6D",
"K. c #A3DD66",
"L. c #A0D16B",
"P. c #A0D26A",
"I. c #A1D469",
"U. c #A1D56A",
"Y. c #A0D16C",
"T. c #A0D06D",
"R. c #A1D26C",
"E. c #A1D36C",
"W. c #A2D26F",
"Q. c #A3D36F",
"!. c #A2D46D",
"~. c #A2D56D",
"^. c #A2D46E",
"/. c #A3D46E",
"(. c #A4D66E",
"). c #A4D66F",
"_. c #A5D66F",
"`. c #A5D76F",
"'. c #A6D86F",
"]. c #A7DA6F",
"[. c #A6DD6C",
"{. c #A2CC73",
"}. c #A2CA75",
"|. c #A3C67D",
" X c #A4CE78",
".X c #A3D271",
"XX c #A4D570",
"oX c #A4D670",
"OX c #A5D670",
"+X c #A5D770",
"@X c #A6D770",
"#X c #A6D771",
"$X c #A6D672",
"%X c #A8D775",
"&X c #A9D775",
"*X c #A7D871",
"=X c #A6D872",
"-X c #A7D872",
";X c #A7D873",
":X c #A8D972",
">X c #A8DB72",
",X c #A8DA73",
"<X c #A9DA73",
"1X c #AADA77",
"2X c #ABDD76",
"3X c #ACDE77",
"4X c #A9D679",
"5X c #AEDE7A",
"6X c #AEDE7B",
"7X c #AFDF7B",
"8X c #AFDF7C",
"9X c #A3E462",
"0X c #ABE073",
"qX c #B0E07B",
"wX c #B0E07C",
"eX c #B0E07D",
"rX c #B3E37D",
"tX c #B2E17F",
"yX c #B2E27E",
"uX c #B3E37E",
"iX c #B2E27F",
"pX c #B3E27F",
"aX c #B3E37F",
"sX c #B4E37F",
"dX c #B4E47F",
"fX c #B4E57F",
"gX c #ACD383",
"hX c #ADD580",
"jX c #ACD084",
"kX c #B1D28D",
"lX c #B2D28F",
"zX c #B3D68E",
"xX c #B4D88D",
"cX c #B1CD91",
"vX c #B9DB95",
"bX c #BADB95",
"nX c #BBDE94",
"mX c #B3E181",
"MX c #B4E380",
"NX c #B4E480",
"BX c #B5E481",
"VX c #B6E582",
"CX c #B6E483",
"ZX c #B6E384",
"AX c #B8E685",
"SX c #B8E489",
"DX c #BEEC8B",
"FX c #BEEC8C",
"GX c #BEE395",
"HX c None",
/* pixels */
"HXHXHXHXHXHXHXHXHXHXHXHXHXHXHXHXHXHXHXHXHXHXHXHXHXHXHXHXHXHXHXHXHXHXHXHXHXHXHXHXHXHXHXHXHXHXHXHXHXHXHXHXHXHXHXHXHXHXHXHXHXHXHXHX",
"HXHXHXHXHXHXHXHXHXHXHXHXHXHXHXHXHXHXHXHXHXHXHXHXHXHXHXHXHXHXHXHXHXHXHXHXHXHXHXHXHXHXHXHXHXHXHXHXHXHXHXHXHXHXHXHXHXHXHXHXHXHXHXHX",
"HXHXHXHXHXHXHXHXHXHXHXHXHXHXHXHXHXHXHXHXHXHXHXHXHXHXHXHXHXHXHXHXHXHXHXHXHXHXHXHXHXHXHXHXHXHXHXHXHXHXHXHXHXHXHXHXHXHXHXHXHXHXHXHX",
"HXHXHXHXHXHXHXHXHXHXHXHXHXHXHXHXHXHXHXHXHXHXHXHXHXHXHXHXHXHXHXHXHXHXHXHXHXHXHXHXHXHXHXHXHXHXHXHXHXHXHXHXHXHXHXHXHXHXHXHXHXHXHXHX",
"HXHXHXHXHXHXHXHXHXHXHXHXHXHXHXHXHXHXHXHXHXHXHXHXHXHXHXHXHXHXHXHXHXHXHXHXHXHXHXHXHXHXHXHXHXHXHXHXHXHXHXHXHXHXHXHXHXHXHXHXHXHXHXHX",
"HXHXHXHXHXHXHXHXHXHXHXHXHXHXHXHXHXHXHXHXHXHXHXHXHXHXHXHXHXHXHXHXHXHXHXHXHXHXHXHXHXHXHXHXHXHXHXHXHXHXHXHXHXHXHXHXHXHXHXHXHXHXHXHX",
"HXHXHXHXHXHXHXHXHXHXHXHXHXHXHXHXHXHXHXHXHXHXHXHXHXHXHXHXHXHXHXHXHXHXHXHXHXHXHXHXHXHXHXHXHXHXHXHXHXHXHXHXHXHXHXHXHXHXHXHXHXHXHXHX",
"HXHXHXHXHXHXHXHXHXHXHXHXHXHXHXHXHXHXHXHXHXHXHXHXHXHXHXHXHXHXHXHXHXHXHXHXHXHXHXHXHXHXHXHXHXHXHXHXHXHXHXHXHXHXHXHXHXHXHXHXHXHXHXHX",
"HXHXHXHXHXHXHXHXHXHXHXHXHXHXHXHXHXHXHXHXHXHXHXHXHXHXHXHXHXHXHXHXHXHXHXHXHXHXHXHXHXHXHXHXHXHXHXHXHXHXHXHXHXHXHXHXHXHXHXHXHXHXHXHX",
"HXHXHXHXHXHXHXHXHXHXHXHXHXHXHXHXHXHXHXHXHXHXHXHXHXHXHXHXHXHXHXHXHXHXHXHXHXHXHXHXHXHXHXHXHXHXHXHXHXHXHXHXHXHXHXHXHXHXHXHXHXHXHXHX",
"HXHXHXHXHXHXHXHXHXHXHXHXHXHXHXHXHXHXHXHXHXHXHXHXHXHXHXHXHXHXHXHXHXHXHXHXHXHXHXHXHXHXHXHXHXHXHXHXHXHXHXHXHXHXHXHXHXHXHXHXHXHXHXHX",
"HXHXHXHXHXHXHXHXHXHXHXHXHXHXHXHXHXHXHXHXHXHXHXHXHXHXHXHXHXHXHXHXHXHXHXHXHXHXHXHXHXHXHXHXHXHXHXHXHXHXHXHXHXHXHXHXHXHXHXHXHXHXHXHX",
"HXHXHXHXHXHXHXHXHXHXHXHXHXHXHXHXHXHXHXHXHXHXHXHXHXHXHXHXHXHXHXHXHXHXHXHXHXHXHXHXHXHXHXHXHXHXHXHXHXHXHXHXHXHXHXHXHXHXHXHXHXHXHXHX",
"HXHXHXHXHXHXHXHXHXHXHXHXHXHXHXHXHXHXHXHXHX].5.v HXHXHX5Xt.X.HXHXHXHX;X=.j HXHXHXuXM.S HXHXHXHXHXHXHXHXHXHXHXHXHXHXHXHXHXHXHXHXHX",
"HXHXHXHXHXHXHXHXHXHXHXHXHXHXHXHXHXHXHXHXHXxXD.u HXHXHXeXu.U HXHXHXHXOX@.D HXHXHXGXW.1.HXHXHXHXHXHXHXHXHXHXHXHXHXHXHXHXHXHXHXHXHX",
"HXHXHXHXHXHXHXHXHXHXHXHXHXHXHXHXHXHXHXHXHX}.G 4 HXHXHXAXB.} HXHXHXHXY.=.B HX> HXkX|.r HXHXHXHXHXHXHXHXHXHXHXHXHXHXHXHXHXHXHXHXHX",
"HXHXHXHXHXHXHXHXHXHXHXHXHXHXHXHXHXHXHXHXHX'.e.b HXHXHXmXr.{ HXHXHXHX*X+.] & X HXyXm.C HXHXHXHXHXHXHXHXHXHXHXHXHXHXHXHXHXHXHXHXHX",
"HXHXHXHXHXHXHXHXHXHXHXHXHXHXHXHXHXHXHXHXHXoXa.t o . HXCXh.P HXHXHXHX-Xs.N HXHXHXiXh.U HXHXHXHXHXHXHXHXHXHXHXHXHXHXHXHXHXHXHXHXHX",
"HXHXHXHXHXHXHXHXHXHXHXHXHXHXHXHXHXHXHXHXHX/.Y M @ HXHXVXk.E _ = HXHX+Xu.u HXHXHXBXV.U HXHXHXHXHXHXHXHXHXHXHXHXHXHXHXHXHXHXHXHXHX",
"HXHXHXHXHXHXHXHXHXHXHXHXHXHXHXHXHXHXHXHXHXA.7.h HXHXHXdX4.W ( + HXHX#XZ.x HXHXHXpXh. .HXHXHXHXHXHXHXHXHXHXHXHXHXHXHXHXHXHXHXHXHX",
"HXHXHXHXHXHXHXHXHXHXHXHXHXHXHXHXHXHXHXHXHXR.,.d HXHXHXvX X~ < HXHXHX'.C.v HXHXHXaX>.V HXHXHXHXHXHXHXHXHXHXHXHXHXHXHXHXHXHXHXHXHX",
"HXHXHXHXHXHXHXHXHXHXHXHXHXHXHXHXHXHXHXHXHX<X0.f HXHXHXhXF.w HXHXHXHXzXG.9 HXHXHX7Xt.| HXHXHXHXHXHXHXHXHXHXHXHXHXHXHXHXHXHXHXHXHX",
"HXHXHXHXHXHXHXHXHXHXHXHXHXHXHXHXHXHXHXHXHX^.6.d HXHXHXdXb.@.HXHXHXHX{.Q 3 HXHXHX8Xu.W HXHXHXHXHXHXHXHXHXHXHXHXHXHXHXHXHXHXHXHXHX",
"HXHXHXHXHXHXHXHXHXHXHXHXHXHXHXHXHXHXHXHXHX#XX.d HXHXHXNX<.Z HXHXHXHX>Xg.f HXHXHXNXv.R ) - HXHXHXHXHXHXHXHXHXHXHXHXHXHXHXHXHXHXHX",
"HXHXHXHXHXHXHXHXHXHXHXHXHXHXHXHXHXHXHXHXHX2Xu.y HXHXHXwXe.U HXHXHXHXXX0.d HXHXHXaXf.E / # HXHXHXHXHXHXHXHXHXHXHXHXHXHXHXHXHXHXHX",
"HXHXHXHXHXHXHXHXHXHXHXHXHXHXHXHXHXHXHXHXHX)...i HXHXHX6Xy.X.HXHXHXHXQ.;.z HXHXHXaXt.T 1 HXHXHXHXHXHXHXHXHXHXHXHXHXHXHXHXHXHXHXHX",
"HXHXHXHXHXHXHXHXHXHXHXHXHXHXHXHXHXHXHXHXHX%X*.m HXHXHXNXx.U HXHXHXHXT.i.x HXHXHXpXN. .HXHXHXHXHXHXHXHXHXHXHXHXHXHXHXHXHXHXHXHXHX",
"HXHXHXHXHXHXHXHXHXHXHXHXHXHXHXHXHXHXHXO 9XcX^ 2 HXHXHXsXk.X.HXHXHXHXE.#.l HXHXHXrXI.} HXHXHXHXHXHXHXHXHXHXHXHXHXHXHXHXHXHXHXHXHX",
"HXHXHXHXHXHXHXHXHXHXHXHXHXHXHXHXHXHXHXHX` &XO.0 HXHXHXaXr.F HXHXHXHXY.6.d HXHXHXnX4X! HXHXHXHXHXHXHXHXHXHXHXHXHXHXHXHXHXHXHXHXHX",
"HXHXHXHXHXHXHXHXHXHXHXHXHXHXHXHXHXHXHXHXHX=X8.p HXHXHXSXn.L HX: , [ .X-.d HXHXHXgXH.q HXHXHXHXHXHXHXHXHXHXHXHXHXHXHXHXHXHXHXHXHX",
"HXHXHXHXHXHXHXHXHXHXHXHXHXHXHXHXHXHXHXHXHXXX&.e HXHXHXbXjXH HXHX  ' 1Xq.l HXHXHXfX9.S HXHXHXHXHXHXHXHXHXHXHXHXHXHXHXHXHXHXHXHXHX",
"HXHXHXHXHXHXHXHXHXHXHXHXHXHXHXHXHXHXHXHXHXZ.,.k HXHX% U.l.s HXHXHXK.$Xe.f HXHXHXNXp.X.HXHXHXHXHXHXHXHXHXHXHXHXHXHXHXHXHXHXHXHXHX",
"HXHXHXHXHXHXHXHXHXHXHXHXHXHXHXHXHXHXHXHXHX!.6.f HXHXHX3Xc.X.HXHXHXHXL.<.g HXHXHXZXP.| HXHXHXHXHXHXHXHXHXHXHXHXHXHXHXHXHXHXHXHXHX",
"HXHXHXHXHXHXHXHXHXHXHXHXHXHXHXHXHXHXHXHXHX(.X.d HXHXHXNXw.I HXHXHXHX:X3.a HX; HXqXz.U HXHXHXHXHXHXHXHXHXHXHXHXHXHXHXHXHXHXHXHXHX",
"HXHXHXHXHXHXHXHXHXHXHXHXHXHXHXHXHXHXHXHXHX@X:.d HXHXHXiX7.I HXHXHXHX*Xt.n HXHX* [.3.| HXHXHXHXHXHXHXHXHXHXHXHXHXHXHXHXHXHXHXHXHX",
"HXHXHXHXHXHXHXHXHXHXHXHXHXHXHXHXHXHXHXHXHX_.d.y HXHXHX6Xq.o.HXHXHXHXlXS.6 HXHX$ 0X2.J HXHXHXHXHXHXHXHXHXHXHXHXHXHXHXHXHXHXHXHXHX",
"HXHXHXHXHXHXHXHXHXHXHXHXHXHXHXHXHXHXHXHXHX~.-.f HXHXHXeXi.U HXHXHXHXJ.A 8 HXHXHXBXh.} HXHXHXHXHXHXHXHXHXHXHXHXHXHXHXHXHXHXHXHXHX",
"HXHXHXHXHXHXHXHXHXHXHXHXHXHXHXHXHXHXHXHXHX,Xp.d HXHXHXNXv.} HXHXHXHX`.t.c HXHXHXpXq.} HXHXHXHXHXHXHXHXHXHXHXHXHXHXHXHXHXHXHXHXHX",
"HXHXHXHXHXHXHXHXHXHXHXHXHXHXHXHXHXHXHXHXFX*X=.f HXHXHXpXj.{ 5 HXHXDX:Xu.d HXHXHXtX%.K 7 HXHXHXHXHXHXHXHXHXHXHXHXHXHXHXHXHXHXHXHX",
"HXHXHXHXHXHXHXHXHXHXHXHXHXHXHXHXHXHXHXHXHXxXD.u HXHXHXeXu.U HXHXHXHXOX@.D HXHXHXGXW.1.HXHXHXHXHXHXHXHXHXHXHXHXHXHXHXHXHXHXHXHXHX",
"HXHXHXHXHXHXHXHXHXHXHXHXHXHXHXHXHXHXHXHXHX}.G 4 HXHXHXAXB.} HXHXHXHXY.=.B HX> HXkX|.r HXHXHXHXHXHXHXHXHXHXHXHXHXHXHXHXHXHXHXHXHX",
"HXHXHXHXHXHXHXHXHXHXHXHXHXHXHXHXHXHXHXHXHX'.e.b HXHXHXmXr.{ HXHXHXHX*X+.] & X HXyXm.C HXHXHXHXHXHXHXHXHXHXHXHXHXHXHXHXHXHXHXHXHX",
"HXHXHXHXHXHXHXHXHXHXHXHXHXHXHXHXHXHXHXHXHXoXa.t o . HXCXh.P HXHXHXHX-Xs.N HXHXHXiXh.U HXHXHXHXHXHXHXHXHXHXHXHXHXHXHXHXHXHXHXHXHX",
"HXHXHXHXHXHXHXHXHXHXHXHXHXHXHXHXHXHXHXHXHX/.Y M @ HXHXVXk.E _ = HXHX+Xu.u HXHXHXBXV.U HXHXHXHXHXHXHXHXHXHXHXHXHXHXHXHXHXHXHXHXHX",
"HXHXHXHXHXHXHXHXHXHXHXHXHXHXHXHXHXHXHXHXHXA.7.h HXHXHXdX4.W ( + HXHX#XZ.x HXHXHXpXh. .HXHXHXHXHXHXHXHXHXHXHXHXHXHXHXHXHXHXHXHXHX",
"HXHXHXHXHXHXHXHXHXHXHXHXHXHXHXHXHXHXHXHXHXR.,.d HXHXHXvX X~ < HXHXHX'.C.v HXHXHXaX>.V HXHXHXHXHXHXHXHXHXHXHXHXHXHXHXHXHXHXHXHXHX",
"HXHXHXHXHXHXHXHXHXHXHXHXHXHXHXHXHXHXHXHXHX<X0.f HXHXHXhXF.w HXHXHXHXzXG.9 HXHXHX7Xt.| HXHXHXHXHXHXHXHXHXHXHXHXHXHXHXHXHXHXHXHXHX",
"HXHXHXHXHXHXHXHXHXHXHXHXHXHXHXHXHXHXHXHXHX^.6.d HXHXHXdXb.@.HXHXHXHX{.Q 3 HXHXHX8Xu.W HXHXHXHXHXHXHXHXHXHXHXHXHXHXHXHXHXHXHXHXHX",
"HXHXHXHXHXHXHXHXHXHXHXHXHXHXHXHXHXHXHXHXHX#XX.d HXHXHXNX<.Z HXHXHXHX>Xg.f HXHXHXNXv.R ) - HXHXHXHXHXHXHXHXHXHXHXHXHXHXHXHXHXHXHX",
"HXHXHXHXHXHXHXHXHXHXHXHXHXHXHXHXHXHXHXHXHX2Xu.y HXHXHXwXe.U HXHXHXHXXX0.d HXHXHXaXf.E / # HXHXHXHXHXHXHXHXHXHXHXHXHXHXHXHXHXHXHX",
"HXHXHXHXHXHXHXHXHXHXHXHXHXHXHXHXHXHXHXHXHX)...i HXHXHX6Xy.X.HXHXHXHXQ.;.z HXHXHXaXt.T 1 HXHXHXHXHXHXHXHXHXHXHXHXHXHXHXHXHXHXHXHX",
"HXHXHXHXHXHXHXHXHXHXHXHXHXHXHXHXHXHXHXHXHX%X*.m HXHXHXNXx.U HXHXHXHXT.i.x HXHXHXpXN. .HXHXHXHXHXHXHXHXHXHXHXHXHXHXHXHXHXHXHXHXHX",
"HXHXHXHXHXHXHXHXHXHXHXHXHXHXHXHXHXHXHXO 9XcX^ 2 HXHXHXsXk.X.HXHXHXHXE.#.l HXHXHXrXI.} HXHXHXHXHXHXHXHXHXHXHXHXHXHXHXHXHXHXHXHXHX",
"HXHXHXHXHXHXHXHXHXHXHXHXHXHXHXHXHXHXHXHX` &XO.0 HXHXHXaXr.F HXHXHXHXY.6.d HXHXHXnX4X! HXHXHXHXHXHXHXHXHXHXHXHXHXHXHXHXHXHXHXHXHX",
"HXHXHXHXHXHXHXHXHXHXHXHXHXHXHXHXHXHXHXHXHX=X8.p HXHXHXSXn.L HX: , [ .X-.d HXHXHXgXH.q HXHXHXHXHXHXHXHXHXHXHXHXHXHXHXHXHXHXHXHXHX",
"HXHXHXHXHXHXHXHXHXHXHXHXHXHXHXHXHXHXHXHXHXXX&.e HXHXHXbXjXH HXHX  ' 1Xq.l HXHXHXfX9.S HXHXHXHXHXHXHXHXHXHXHXHXHXHXHXHXHXHXHXHXHX",
"HXHXHXHXHXHXHXHXHXHXHXHXHXHXHXHXHXHXHXHXHXZ.,.k HXHX% U.l.s HXHXHXK.$Xe.f HXHXHXNXp.X.HXHXHXHXHXHXHXHXHXHXHXHXHXHXHXHXHXHXHXHXHX",
"HXHXHXHXHXHXHXHXHXHXHXHXHXHXHXHXHXHXHXHXHX!.6.f HXHXHX3Xc.X.HXHXHXHXL.<.g HXHXHXZXP.| HXHXHXHXHXHXHXHXHXHXHXHXHXHXHXHXHXHXHXHXHX",
"HXHXHXHXHXHXHXHXHXHXHXHXHXHXHXHXHXHXHXHXHX(.X.d HXHXHXNXw.I HXHXHXHX:X3.a HX; HXqXz.U HXHXHXHXHXHXHXHXHXHXHXHXHXHXHXHXHXHXHXHXHX",
"HXHXHXHXHXHXHXHXHXHXHXHXHXHXHXHXHXHXHXHXHX@X:.d HXHXHXiX7.I HXHXHXHX*Xt.n HXHX* [.3.| HXHXHXHXHXHXHXHXHXHXHXHXHXHXHXHXHXHXHXHXHX",
"HXHXHXHXHXHXHXHXHXHXHXHXHXHXHXHXHXHXHXHXHX_.d.y HXHXHX6Xq.o.HXHXHXHXlXS.6 HXHX$ 0X2.J HXHXHXHXHXHXHXHXHXHXHXHXHXHXHXHXHXHXHXHXHX",
"HXHXHXHXHXHXHXHXHXHXHXHXHXHXHXHXHXHXHXHXHX~.-.f HXHXHXeXi.U HXHXHXHXJ.A 8 HXHXHXBXh.} HXHXHXHXHXHXHXHXHXHXHXHXHXHXHXHXHXHXHXHXHX",
"HXHXHXHXHXHXHXHXHXHXHXHXHXHXHXHXHXHXHXHXHX,Xp.d HXHXHXNXv.} HXHXHXHX`.t.c HXHXHXpXq.} HXHXHXHXHXHXHXHXHXHXHXHXHXHXHXHXHXHXHXHXHX",
"HXHXHXHXHXHXHXHXHXHXHXHXHXHXHXHXHXHXHXHXHX*X=.d HXHXHXMXj.{ HXHXHXHX:Xu.d HXHXHXtX$.K HXHXHXHXHXHXHXHXHXHXHXHXHXHXHXHXHXHXHXHXHX"
};
