/* XPM */
static char *result[] = {
/* columns rows colors chars-per-pixel */
"64 64 7 1 ",
"  c #5A595A",
". c gray39",
"X c #6A6D6A",
"o c #787678",
"O c gray50",
"+ c #8B898B",
"@ c #9C999C",
/* pixels */
".+@@@@@@@@@@@@@@@@@@@@@@@@@@@@@@@@@@@@@@@@@@@@@@@@@@@@@@@@@@@@  ",
"X@+++@@@+@+@@+@@+ @+++@@@@+++@@@++@@@+++++@+@++++@@@++++@++@@+  ",
"XXOOO++OOOOOO++X.O++++++O+++++++++OO+++OOOOOOXXOOO+++OOO++++++  ",
"X++O+O++O++OOOX.OOOO++OOOO+O++OO++++OOoOOOOOXXOXX+OO++OO++O+++. ",
"@X++++OO++++++ OO+O++++++OOO+OO+OOoooOOooO+OOOOOOXXOOOOOOOOOO+  ",
"@XX++++++OO+OOX.++++++OO++OOO+++OOOOooooOOO+OOOO+OOXOOOO+OOO+O  ",
"@+X+X+O+++OO+++X.++++.O+OOOOOOOOOOOOOoOO+O++OO++OO++OO++++OOOO. ",
"@@+XXXOO+O++++X.++++++XOOOOO+O++O++OOOo+O+++O+++++OOOOO++O+OOO. ",
"@++++XXOO++O+..XO++O+..O++O++++OOO++++o+++O++++OOOOOOOOOO+OOOo. ",
"@+++++OXOOO+. X  XOOOO.+XOOO+OOOOOOOO++oOO++++++O+OOOOOOOOOOoo  ",
"@++O+++O++X.XXOO..X+O++.O+OOOOOOOOOO++OoOoOo+++O+OOOOOOOOoOooO  ",
"@+O+OO++.  XOOO+++.O+++XOOOOOoOOOOOOOO+OXooO+++++OOOOOOooOoooO. ",
"@+O.O+ .O.OO+OOOO+++OOX+OOOOoooOooOOOOOO.OooOO+OOOOOXooOooooOo. ",
"@@..O..X.OOOOOOOOO+OOOOO++OOOoooOOOOO+O+OXOOOOOOOOOOXOooOooooO  ",
"@.OX.XXOOOOOOOOOOOOOOOOOOOOOoOOOOOOOOO+++..++OOOOOOO.XOOoooooo. ",
"@@oOXOOOOOOOOOOOOOOOOOOOOOOOOOOOOOOOOOOOXX+XX+OOOOoX.OOoooOooo. ",
"@+ooOOOOOOOOOOOOOOOOOOOOOOOOOOOOOOO++OOXOOoOX.ooOOO.ooOOOooOOo. ",
"@+oOoOoOooOOOOOOoOOOOOOOOoOOOOOOOO++O+OOOOOooX..ooX.oOXOXOOOoo. ",
"@+ooOooooOOOOoOoOoOOOOooooooOOOOooooooOOoooooooX..  ooXXOOoooo  ",
"@@ooooOOOOoooooooooOOOOOoooOooOOOOooooooOOOOooooXoo ooXooooooo. ",
"@+OooooOoooooooooooooOOOOOoooooooooooooooOooooOoooo.oXoooooooo. ",
"@+oooooooooooOooooOOooOOOoooOooooooOoooooooooooOOoX..XoOoooooo  ",
"@+ooooOoooooOooooOOoOOoooOOOooOOooooOOooooooOOOoOOOo.oooOOOooo  ",
"@@OXOOooooooooooXOooOoooooOoooooOOoOOoooooOOoOoooOooo.OooOoOoo. ",
"@@oOXXOOOXoooOOXoooooooooOooooooooOoooOOoOOoooOoooooo OOOOoooo. ",
"@@XXXoOOooXXXooXoXooooooooooooooooooOOoOOOoooOooooOoo oOoooooo. ",
"@+oooXXXoXXooooXXOooooooooOOoooOoooooOOooOOOooooOOooo. ooooOoO  ",
"++OOOooXXOooooOOXoooooOooooOOOooOOooooooOOOooooooOoooo.oooooOO. ",
"+oooooooOXXXooooOXoooooOooooooOOOoooooooooooooooooooooo oooOOX. ",
"XXXXXXXXXXXXXXXXXXXXXXXXXXXXXXXXXXXXXXXXXXXXXXXXXXXXXXX XXXXXX. ",
".X  . ....      . ..X..XX...  ...  .. .  ...XXX...X.XXX. XX.... ",
"                                                                ",
"@@@@@@@@@@@@@@@@@@@.@@@@+@.@@+  ++@@@@@ .X@@@@@@@@@@@@@@@@@@@@@@",
"+++++@@@@@@@+@@++@X +++OOXX.@@ .+@@++@++  X++@@+++++@@@+@@+@+@@@",
"+OO+O+++++++O+++++.+OOOOOOOOX@ .@@++++++X .+++++++++++++++++++++",
"++OO++++O++++OO++. +++OOOOOOO. .@@++++++++ .+++++O+++++++++++O++",
"O++OOOOO++++++OOO.XO+++O+OOOOX .@+++++++++X.++++++OO++++++++OOOO",
"OOOOOOOOOOO+++OO.XOOOO++++O+OO .@+++++O++O.OO+++++O++++O+++++++O",
"++OOOOOOOOOOOO+O OOOOOOOO++OOO .@++O+O++X.XO+++O+O++++++O+O++OOO",
"O+++OOOOOOOOOOO. OOOOOOOOOOOO+  @++OOOO..OOOOO++OO+++++OOO+OOOOO",
"OOOOOOOXOOOOOOO XOOoo+OO+O++++  @@OOOX. O+OOOOOOO++O++OO++OOOOoO",
"OOOOOXXOOOOOOOOX.XOOoo++++OO+O .@+O.. XOOO+++OOOOX++O++OO+++OooO",
"OOOO  OOOOO+OOO+.X++oOo+OOOOOO .@X.  XOOO++OOOooOX.X+OOOOOXOOOoo",
"OO+ XOOOOO+O++++X.+OOOOOOO+OOO  ..XoOOOO++O+oooOoOX..OOOOOX.Oo+o",
"OOO+XXOOO++++OOOOX.XOOOOOOO++o  @+ooOoOOoooooOOOOOOO.XOOOOOX.++O",
"OOOOXO+++O+++++O+O.  OOOOo++oO  @+OooOOoooooOOOoooOOo.OOOOOO.+O+",
"OOOOOOOOO+++OO++OOOX. XOOooO.  .@@oOoooooooooOOOOOooO.XOoOX.XOOO",
"OOOO+OOO+++O+OO+++OOOO..Xo .Xo .@@OOoooOOoOoooOOoooOOO.ooo.XOOOO",
"OOOOO+++O+OOOOOOoOOoOOOX  .ooo .@@ooooOOOOOoooOooOoOOO.+o+.OOOOO",
"OOOO++OOOOOoOOOOOooooOOOOOooXo .@+oooooOoooOooooOOOOOOX.+. OOOOO",
"OOO+OOOOOOoooOOOOoOoOOoooooXoX  @+OooooooooooooOOOOOOOO..  OOOoo",
"OOOOOOOOOOOooXOoOOooOoOOooooXX .++OoooooooooOOooOOOOOoOOX XOoooO",
"OOOOO+OOOOOOXOoOOOoooooOOOoooX  +@ooooooooOoOooooOOOOOoO OooOoOO",
"OO+++OOoOOOOXOooOoooooooOooooo  @+ooooooooOOooOoOoOOOOo .ooooOOO",
"OOO+OOoooooXooooooOOoOoooooooo  @+ooOOOoOoooOOooXOoOOOX oooooooO",
"OOOOOOoOooXXOooooooOOOOooooooo .@+ooooOXooooOoXoXooooo OoooooOoo",
"OOoOOOOoOOXOOOooooooOOooooOooo .@+oooooXOXoooooXoooooo .OoooOOOO",
"OoOOooOOOXooOooooooOoooOooOOoo  @@ooooooXOooXXXooOoOooo XooOooOO",
"ooooOoXXXoooooooooooooooOOOooo  @@ooooooXXoXXoooooOOOooX ooooooo",
"oooXXXooXXoXoooooooooooooOoooX  @+oooooooXXoooooooOOoooo .oooooo",
"ooXXooooooXoooooooooooooooooXX  X@+ooooooooXXXooooooooooo Xooooo",
"XXXXXXXXXXXXXXXXXXXXXXXXXXXXX  .XXXXXXXXXXXXXXXXXXXXXXXXXX   XXX",
".XX  . ...XXX..XX.  ..  ..      .    .  . X.. ..XXX..  . .X.XX..",
".. .  ..   .....  .    .              .  ...    ..   .  ........"
};
