/* XPM */
static char *result[] = {
/* columns rows colors chars-per-pixel */
"32 32 176 2 ",
"   c #9F4A14",
".  c #A14C17",
"X  c #AC4D17",
"o  c #A34F18",
"O  c #A35917",
"+  c #A45319",
"@  c #AF5319",
"#  c #AA5C1C",
"$  c #B05317",
"%  c #B1551B",
"&  c #B45B1C",
"*  c #B85E1E",
"=  c #AC631E",
"-  c #B2641C",
";  c #B9641F",
":  c #BA6C1E",
">  c #B65D20",
",  c #AF6B20",
"<  c #B46322",
"1  c #BB6522",
"2  c #B26D24",
"3  c #BD6B23",
"4  c #BE7222",
"5  c #B77A28",
"6  c #B97D2A",
"7  c #C06F26",
"8  c #C17426",
"9  c #C37A27",
"0  c #C3742B",
"q  c #C57C2A",
"w  c #C87E2D",
"e  c #BA822C",
"r  c #C7812B",
"t  c #C9842D",
"y  c #C58A2E",
"u  c #CB8B2E",
"i  c #CB8332",
"p  c #CD8C31",
"a  c #C98339",
"s  c #CC8C3B",
"d  c #CE9232",
"f  c #CE9A37",
"g  c #CE933D",
"h  c #C59D39",
"j  c #D09335",
"k  c #D29B37",
"l  c #D29539",
"z  c #D49C3B",
"x  c #D5A23C",
"c  c #D8A33E",
"v  c #D09741",
"b  c #D29A40",
"n  c #D6A441",
"m  c #D9A442",
"M  c #DBAB44",
"N  c #D6A549",
"B  c #D9A54A",
"V  c #DDAE49",
"C  c #DCB244",
"Z  c #DCB846",
"A  c #DEB44C",
"S  c #DFBA4C",
"D  c #DAAB53",
"F  c #DDAF5D",
"G  c #DDB253",
"H  c #DEB45D",
"J  c #D5B85E",
"K  c #DFBA5D",
"L  c #E1B54D",
"P  c #E2BB4E",
"I  c #E1B651",
"U  c #E2BC53",
"Y  c #E2BD5C",
"T  c #E0B766",
"R  c #E4BD64",
"E  c #E0B668",
"W  c #E2BE69",
"Q  c #E3C34C",
"!  c #E5C454",
"~  c #E8C554",
"^  c #E6CB55",
"/  c #EACD54",
"(  c #E5C35B",
")  c #E8C55C",
"_  c #E6CB5C",
"`  c #EACD5C",
"'  c #E7D258",
"]  c #EBD35B",
"[  c #F1D55F",
"{  c #E5C463",
"}  c #E7CB65",
"|  c #EACE62",
" . c #E4C26C",
".. c #E6CA68",
"X. c #EDCD6B",
"o. c #ECD264",
"O. c #EEDC63",
"+. c #EDD56C",
"@. c #EEDA6B",
"#. c #F1D662",
"$. c #F8D664",
"%. c #F1DC65",
"&. c #F3D56B",
"*. c #F3DA6B",
"=. c #F8DB6F",
"-. c #E5C674",
";. c #EAC775",
":. c #E6CB75",
">. c #ECCD70",
",. c #E7CB79",
"<. c #EBCE7C",
"1. c #ECD472",
"2. c #EFDB74",
"3. c #EAD27E",
"4. c #EFDC79",
"5. c #F2D574",
"6. c #F2DB74",
"7. c #F9DC74",
"8. c #F2D57D",
"9. c #F3DD7A",
"0. c #FBDF7F",
"q. c #EFE268",
"w. c #F0E267",
"e. c #F2E56B",
"r. c #F4E86E",
"t. c #F2E376",
"y. c #F6EB76",
"u. c #F3E27B",
"i. c #FAE37C",
"p. c #F6EB7C",
"a. c #F8EE7F",
"s. c #E5C482",
"d. c #ECD484",
"f. c #EDD98B",
"g. c #F5DE81",
"h. c #F2D68B",
"j. c #F5DB8E",
"k. c #E8CB92",
"l. c #F1D792",
"z. c #F4E382",
"x. c #FBE483",
"c. c #F6ED84",
"v. c #F8EE84",
"b. c #F7E48D",
"n. c #F9E58C",
"m. c #F6EE8C",
"M. c #FBEC8D",
"N. c #F9F185",
"B. c #F7F088",
"V. c #F9F28D",
"C. c #FAE692",
"Z. c #F7EF90",
"A. c #FEEB94",
"S. c #F6E29F",
"D. c #F5ED9E",
"F. c #FBEB9B",
"G. c #F9F294",
"H. c #F8F19B",
"J. c #F9E7A6",
"K. c #FDEBA3",
"L. c #F7EFA9",
"P. c #FCECAC",
"I. c #F7F0A3",
"U. c #F8F2A4",
"Y. c #FCF8A5",
"T. c #F9F3AC",
"R. c #FDEDB1",
"E. c #FAF4B4",
"W. c #FBF5BC",
"Q. c #F9EEC5",
"!. c #FBF4C5",
"~. c #FAF6C9",
"^. c #FCF8CC",
"/. c #FAF6D1",
"(. c #FCFAD4",
"). c #FDFBE9",
/* pixels */
").(.~.!.^.^././.^./.~.W.W.T.E.W.W.W.Y.G.G.G.G.V.N.N.c.c.G.c.1.J ",
"/.^.E.U.L.H.D.T.U.m.m.c.c.c.p.B.N.y.e.w.e.e.r.r.w.r.e.e.O.` z = ",
"~.W.E.%.' Z Z q.q./ ! O.q.e.O.r.r.e.r.e.w.e.w.%.r.q.' Z ^ p r , ",
"^.E.T.N.' c P ' ] ] O.] ^ ! C / ^ O.O.' ' Q ~ ~ Z Q ] ! g q 9 2 ",
"^.T.H.p.y.d x x n n m d f z l z z k k V C x j j j j d p q 0 t 2 ",
"~.U.H.c.y # X & > 1 % > > > 1 0 > > > & & $ % $ $ @ q t w t q 2 ",
"!.I.H.c.f 3 c x z N H D F D D B v g a s a w w 0 1 1 p p r u t 2 ",
"!.V.Z.c.z 8 A M K ;.d.j.h.l.h.;.T T F T D s t 8 w i ..d t u d 2 ",
"W.I.H.u.G t ) G 3.S.S.R.R.P.j.h.<.l.l.d.R N c u 7 1 K n u u j 2 ",
"W.G.Z.p.S w o.Y b.P.Q.W.J.C.i.8.<.h.f.d.{ ! M x t w { G p f u 2 ",
"E.G.H.N.A p 6.>.K.Q.Q.R.P.K.A.n.7.5.9.6./ ! c c t r { V d d p 2 ",
"E.Z.V.V.A w 9.5.C.P.R.F.C.K.A.A.7.=.#.[ / Q P x p p -.x u u u < ",
"W.G.G.p.m q { 5.7.g.A.A.n.A.M.i.&.#.%.] ^ ' P x w 8 T z p p r , ",
"W.Z.H.c.m 0 U >.7.=.x.x.i.A.i.6.&.$.[ [ ] @.P c u & E c u p q # ",
"E.c.c.z.S q R I.I.I.I.I.I.n.6.u.#.[ %.%.@.+.S z p 0 s.b u u 8 = ",
"E.c.V.u.S 1 I I.I.I.I.I.I.z.t.%.| o.o.*.+.6.| m 0 v W u q q 7 # ",
"T.c.Z.m.V 7 Y X.X.7.7.x.C.6.&.o.6.6.| 6.t.} _ ! n d  .k 9 w 8 # ",
"U.y.Z.u.Y 0 U >.&.5.=.z.g.o.| 2.6.o.+.+.} | } ( V m ;.c t q 8 # ",
"T.c.a.o.U 1 G X.X.&.+.6.o.6.1.+.+.o.6.o.o.| | A V b ,.z p p t # ",
"T.N.z.O.S 1 V } &.&.6.=.o.t.9.4.2.2.2.o.( | ! V V p -.c u u t = ",
"T.N.y.o.P 3 l ! / e.*.t.u.9.z.4.u.2.+.o.| ! L L m p } x j j u 2 ",
"T.c.c.^ M 3 V ( ` o.+.g.2.z.z.4.4.@.| _ ( z L U L m 2.x d k j 2 ",
"E.m.H.P M q L G ( _ ) 5.+.1.+.| @.@.^ U U P U I V k d.c j k j 5 ",
"E.v.G.! M w A I G G ( ) ! ( ( ( ( U A A L M M M B j 3.x k k k 5 ",
"E.p.v.^ M 8 c z z m b z z p d l n m n M L V V z l p d.t d k k 6 ",
"T.v.t.P d & j p p z V P A n z i z z z p z z p t q 3 :.t d k k e ",
"T.y.o.z j c ! _ ^ ) ` } Y Y { ..{ -.<.3.f.{ d.,.W H k.r r d k e ",
"T.t.! C u 0 8 u t p p j d j f d y t j p l p j d p r t - 4 u u 5 ",
"z.] c k ; ; 7 7 7 8 8 8 9 w 9 w w u u t t r t u u d r : - 9 9 6 ",
"z.x k $ & ; ; 7 7 7 3 8 0 8 t q i j u j u d u d k d y 9 4 - 4 : ",
"o.g ; $ $ & * ; 1 ; 1 7 3 8 8 9 r t u j t r u d k x t d 4 4 - 4 ",
"h .   . . . o o o o o + + O # # = 2 2 2 2 = : 5 e e e 5 5 = = O "
};
