/* XPM */
static char *result[] = {
/* columns rows colors chars-per-pixel */
"64 64 159 2 ",
"   c #030100",
".  c #0C0503",
"X  c #140200",
"o  c #130A06",
"O  c #150D0A",
"+  c #180F0C",
"@  c #111504",
"#  c #1B110E",
"$  c #161211",
"%  c #1C1412",
"&  c #171818",
"*  c #1C1C1C",
"=  c #290F0D",
"-  c #231105",
";  c #20140A",
":  c #29150C",
">  c #2F180D",
",  c #321A0C",
"<  c #211613",
"1  c #2A1710",
"2  c #241916",
"3  c #2D1A13",
"4  c #271B19",
"5  c #2A1D1B",
"6  c #331D12",
"7  c #3C1F17",
"8  c #003500",
"9  c #243B09",
"0  c #20261F",
"q  c #2E211D",
"w  c #342017",
"e  c #32231E",
"r  c #38261D",
"t  c #3B281E",
"y  c #1E1F20",
"u  c #1E2021",
"i  c #222222",
"p  c #2E2220",
"a  c #342522",
"s  c #382620",
"d  c #372824",
"f  c #3A2A25",
"g  c #3E2D28",
"h  c #36302E",
"j  c #323333",
"k  c #3C3D3D",
"l  c #3C3634",
"z  c #432619",
"x  c #4B2E1D",
"c  c #442A1C",
"v  c #53321E",
"b  c #422B20",
"n  c #412F2A",
"m  c #4B3225",
"M  c #43312C",
"N  c #4B342C",
"B  c #523423",
"V  c #5A3723",
"C  c #5C3A26",
"Z  c #52362B",
"A  c #5B362B",
"S  c #563A2C",
"D  c #5A3C2E",
"F  c #463430",
"G  c #4B3632",
"H  c #403936",
"J  c #4D3934",
"K  c #433E3D",
"L  c #533B35",
"P  c #5A3E33",
"I  c #543E3A",
"U  c #5A3F38",
"Y  c #653226",
"T  c #633D29",
"R  c #673A32",
"E  c #0B5908",
"W  c #06531B",
"Q  c #275D19",
"!  c #5D402F",
"~  c #5E4132",
"^  c #57403B",
"/  c #5B423C",
"(  c #495F3A",
")  c #76462C",
"_  c #624334",
"`  c #694635",
"'  c #6B4837",
"]  c #64443B",
"[  c #6C4B3C",
"{  c #754A32",
"}  c #7F4C31",
"|  c #71433B",
" . c #7E4639",
".. c #704F3E",
"X. c #6F503E",
"o. c #71503E",
"O. c #3E3F40",
"+. c #3E4243",
"@. c #434242",
"#. c #4B4D4D",
"$. c #5E4641",
"%. c #4E4F50",
"&. c #515253",
"*. c #575858",
"=. c #5A5B5C",
"-. c #614741",
";. c #654A44",
":. c #6B4C44",
">. c #6B4F49",
",. c #704F42",
"<. c #7B4E42",
"1. c #6E514B",
"2. c #745243",
"3. c #7B5543",
"4. c #7D5946",
"5. c #72544D",
"6. c #7F5A49",
"7. c #755750",
"8. c #765951",
"9. c #7B5C54",
"0. c #7E5F58",
"q. c #7A736F",
"w. c #844D32",
"e. c #835B4B",
"r. c #93574C",
"t. c #805F57",
"y. c #8D6452",
"u. c #84645C",
"i. c #916752",
"p. c #956A53",
"a. c #926758",
"s. c #886760",
"d. c #8D6B63",
"f. c #926F67",
"g. c #95716A",
"h. c #99746C",
"j. c #B37B62",
"k. c #B47E6B",
"l. c #B47F71",
"z. c #48995F",
"x. c #53905A",
"c. c #B98366",
"v. c #B7826B",
"b. c #BB856C",
"n. c #BF896C",
"m. c #B78273",
"M. c #BA8472",
"N. c #BE8778",
"B. c #C18B6D",
"V. c #C48C73",
"C. c #C88F72",
"Z. c #CF9375",
"A. c #CD937B",
"S. c #D19675",
"D. c #D2977C",
"F. c #D49979",
"G. c #B6ADB6",
"H. c #C0A6B3",
"J. c None",
/* pixels */
"J.J.J.J.J.J.J.J.J.J.J.J.J.J.J.J.J.J.J.J.J.J.J.J.J.J.J.J.J.J.J.J.J.J.J.J.J.J.J.J.J.J.J.J.J.J.J.J.J.J.J.J.J.J.J.J.J.J.J.J.J.J.J.J.",
"J.J.J.J.J.J.J.J.J.J.J.J.J.J.J.J.J.J.J.J.J.J.J.J.J.J.J.J.J.J.J.J.J.J.J.J.J.J.J.J.J.J.J.J.J.J.J.J.J.J.J.J.J.J.J.J.J.J.J.J.J.J.J.J.",
"J.J.J.J.J.J.J.J.J.J.J.J.J.J.J.J.J.J.J.J.J.J.J.J.J.J.J.J.J.J.J.J.n.B.J.J.J.J.J.J.J.J.J.J.J.J.J.J.J.J.J.J.J.J.J.J.J.J.J.J.J.J.J.J.",
"J.J.J.J.J.J.J.J.J.J.J.J.J.J.J.J.J.J.J.J.J.J.J.J.J.J.J.J.J.J.M.b.M.M.n.M.J.J.J.J.J.J.J.J.J.J.J.J.J.J.J.J.J.J.J.J.J.J.J.J.J.J.J.J.",
"J.J.J.J.J.J.J.J.J.J.J.J.J.J.J.J.J.J.J.J.J.J.J.J.J.J.J.J.M.m.k.j.j.k.j.k.k.j.J.J.J.J.J.J.J.J.J.J.J.J.J.J.J.J.J.J.J.J.J.J.J.J.J.J.",
"J.J.J.J.J.J.J.J.J.J.J.J.J.J.J.J.J.J.J.J.J.J.J.J.J.J.n.M.k.j.j.l.k.j.c.M.b.n.n.n.J.J.J.J.J.J.J.J.J.J.J.J.J.J.J.J.J.J.J.J.J.J.J.J.",
"J.J.J.J.J.J.J.J.J.J.J.J.J.J.J.J.J.J.J.J.J.J.J.J.C.n.b.m.v.c.b.n.M.B.V.n.B.B.n.n.j.B.J.J.J.J.J.J.J.J.J.J.J.J.J.J.J.J.J.J.J.J.J.J.",
"J.J.J.J.J.J.J.J.J.J.J.J.J.J.J.J.J.J.J.J.J.J.J.i.v.Z.V.m.n.V.n.n.B.n.n.n.n.b.c.C.H.M.a.J.J.J.J.J.J.J.J.J.J.J.J.J.J.J.J.J.J.J.J.J.",
"J.J.J.J.J.J.J.J.J.J.J.J.J.J.J.J.J.J.J.J.J.J.J._ X.i.c.S.C.c.n.n.b.b.b.c.k.V.D.n.a./ m D J.J.J.J.J.J.J.J.J.J.J.J.J.J.J.J.J.J.J.J.",
"J.J.J.J.J.J.J.J.J.J.J.J.J.J.J.J.J.J.J.J.J.J.J.o.[ ~ [ i.c.Z.Z.m.m.m.l.v.S.B.p.` m N P J.J.J.J.J.J.J.J.J.J.J.J.J.J.J.J.J.J.J.J.J.",
"J.J.J.J.J.J.J.J.J.J.J.J.J.J.J.J.J.J.J.J.J.J.J...X.X.[ ~ [ i.v.A.C.C.D.C.p._ m Z P S P J.J.J.J.J.J.J.J.J.J.J.J.J.J.J.J.J.J.J.J.J.",
"J.J.J.J.J.J.J.J.J.J.J.J.J.J.J.J.J.J.J.J.J.J.J...o.[ :.X.[ ~ [ y.c.B.p._ m Z ~ _ ~ ~ ~ J.J.J.J.J.J.J.J.J.J.J.J.J.J.J.J.J.J.J.J.J.",
"J.J.J.J.J.J.J.J.J.J.J.J.J.J.J.J.J.J.J.J.J.J.J.:.o.' ' o.2.o.[ P [ [ m S ~ P _ ! ~ _ ~ J.J.J.J.J.J.J.J.J.J.J.J.J.J.J.J.J.J.J.J.J.",
"J.J.J.J.J.J.J.J.J.J.J.J.J.J.J.J.J.J.J.J.J.J.J.[ X.X.[ [ [ o.o.o.` S P ~ ~ S D P ~ ~ ~ J.J.J.J.J.J.J.J.J.J.J.J.J.J.J.J.J.J.J.J.J.",
"J.J.J.J.J.J.J.J.J.J.J.J.J.J.J.J.J.J.J.J.J.J.J.:.3.2.o.o.o.o.o.o.:._ ~ ~ I D D _ ~ ~ ~ J.J.J.J.J.J.J.J.J.J.J.J.J.J.J.J.J.J.J.J.J.",
"J.J.J.J.J.J.J.J.J.J.J.J.J.J.J.J.J.J.J.J.J.J.J.:.L 2.e.o.[ ....o.o._ P ~ P D P _ ! ~ P J.J.J.J.J.J.J.J.J.J.J.J.J.J.J.J.J.J.J.J.J.",
"J.J.J.J.J.J.J.J.J.J.J.J.J.J.J.J.J.J.J.J.J.J.J.2.. X D 4.e.2.[ o.[ _ ! ~ ~ P P ~ ~ ~ P J.J.J.J.J.J.J.J.J.J.J.J.J.J.J.J.J.J.J.J.J.",
"J.J.J.J.J.J.J.J.J.J.J.J.J.J.J.J.J.J.J.J.J.J.J.4.q.u   ; S 4.e.:.:._ ~ ~ ~ U ~ ~ ~ P D J.J.J.J.J.J.J.J.J.J.J.J.J.J.J.J.J.J.J.J.J.",
"J.J.J.J.J.J.J.J.J.J.J.J.J.J.J.J.J.J.J.J.J.J.J.v G.x.8 =   : P 2.,./ P ! ~ ~ _ ~ L S D J.J.J.J.J.J.J.J.J.J.J.J.J.J.J.J.J.J.J.J.J.",
"J.J.J.J.J.J.J.J.J.J.J.J.J.J.J.J.J.J.J.J.J.5.] x | ( Q <.Z @   - 2.] P ~ ~ ~ ~ ~ P ~ D J.J.J.J.J.J.J.J.J.J.J.J.J.J.J.J.J.J.J.J.J.",
"J.J.J.J.J.J.J.J.J.J.J.J.J.J.J.J.J.J.J.J./ >.>.B ! w. .{ r.E W I ] ] P R ~ ~ P ~ ~ ~ S J.J.J.J.J.J.J.J.J.J.J.J.J.J.J.J.J.J.J.J.J.",
"J.J.J.J.J.J.J.J.J.J.J.J.J.J.J.J.J.J.J.J.I $.:.B C ) w.w.Y 9 x.G...P ! ~ ~ _ P P _ P D J.J.J.J.J.J.J.J.J.J.J.J.J.J.J.J.J.J.J.J.J.",
"J.J.J.J.J.J.J.J.J.J.J.J.J.J.J.J.J.J.J.;.;.1.-.B v B T z + R e.9.X._ L ~ ~ D P D D [ :.J.J.J.J.J.J.J.J.J.J.J.J.J.J.J.J.J.J.J.J.J.",
"J.J.J.J.J.J.J.J.J.J.J.J.J.J.J.J.J.J.J.>.1.9.;.g B A c > , 7 T T B ^ ~ ~ P Z P :.:.L p J.J.J.J.J.J.J.J.J.J.J.J.J.J.J.J.J.J.J.J.J.",
"J.J.J.J.J.J.J.J.J.J.J.J.J.J.J.J.J.J.5.5.1.7.1.g m C m , w z A ' B S _ D P :.:.L 5 O + J.J.J.J.J.J.J.J.J.J.J.J.J.J.J.J.J.J.J.J.J.",
"J.J.J.J.J.J.J.J.J.J.J.J.J.J.J.J.J.J.5.5.7.9.;.d m C x 6 , C o.` B D _ :.:.G q O + < < J.J.J.J.J.J.J.J.J.J.J.J.J.J.J.J.J.J.J.J.J.",
"J.J.J.J.J.J.J.J.J.J.J.J.J.J.J.J.J.5.5.5.>.1.5.M x T x 6 , _ 3.` V ~ ;.I 2 < 4 + < 2 4 J.J.J.J.J.J.J.J.J.J.J.J.J.J.J.J.J.J.J.J.J.",
"J.J.J.J.J.J.J.J.J.J.J.J.J.J.J.J.5.5.5.1.;./ ;.^ c v x , : ] ^ 2 m N 4 . O 1.7.F 2 % 5 J.J.J.J.J.J.J.J.J.J.J.J.J.J.J.J.J.J.J.J.J.",
"J.J.J.J.J.J.J.J.J.J.J.J.J.J.J.J.>.1.5.5.1./ $.1.$.J N w O # 5 # p M 4   J t.9.u.;.n 5 J.J.J.J.J.J.J.J.J.J.J.J.J.J.J.J.J.J.J.J.J.",
"J.J.J.J.J.J.J.J.J.J.J.J.J.J.J.;.>.5.5.7.>.;.;.>.1.7.1.F a # + g F I 5 % 7.;.;.1.0.;.4 J.J.J.J.J.J.J.J.J.J.J.J.J.J.J.J.J.J.J.J.J.",
"J.J.J.J.J.J.J.J.J.J.J.J.J.J.J.5.>.1.5.1.1.>.;.1.5.7.;.$.;.^ a a L g % I 0.:.>.$.] p 5 f J.J.J.J.J.J.J.J.J.J.J.J.J.J.J.J.J.J.J.J.",
"J.J.J.J.J.J.J.J.J.J.J.J.J.J.J.J 5.9.7.7.1.1.9.7.5.1.$.-.1.9.>.J d d G 7.7.7.1.>.n o 5 f s J.J.J.J.J.J.J.J.J.J.J.J.J.J.J.J.J.J.J.",
"J.J.J.J.J.J.J.J.J.J.J.J.J.J.J.J.q / d.h.0.9.u.s.0.1.;.^ ;.8.1.1.U $.9.7.5.5.7.;.% % < 5 a J.J.J.J.J.J.J.J.J.J.J.J.J.J.J.J.J.J.J.",
"J.J.J.J.J.J.J.J.J.J.J.J.J.J.J.J.J.J.a 1.g.h.u.u.8.;.J ^ 5.1.1.1.>.I -.5.5.1.0.g + a 4 5 a J.J.J.J.J.J.J.J.J.J.J.J.J.J.J.J.J.J.J.",
"J.J.J.J.J.J.J.J.J.J.J.J.J.J.J.J.J.J.J.. d >.g.f.8./ g ;.9.9.1.-.;.$.;.>.7.9.;.< 5 e 5 5 J.J.J.J.J.J.J.J.J.J.J.J.J.J.J.J.J.J.J.J.",
"J.J.J.J.J.J.J.J.J.J.J.J.J.J.J.J.J.J.J.J.J.  a -.8.M ^ 8.0.u.0.1.;.5.5.5.5.9.f < a e 4 J.J.J.J.J.J.J.J.J.J.J.J.J.J.J.J.J.J.J.J.J.",
"J.J.J.J.J.J.J.J.J.J.J.J.J.J.J.J.J.J.J.J.J.J.J.2 4 q 5.d.u.u.u.5.1.5.5.5.t./ 4 e e 5 4 J.J.J.J.J.J.J.J.J.J.J.J.J.J.J.J.J.J.J.J.J.",
"J.J.J.J.J.J.J.J.J.J.J.J.J.J.J.J.J.J.J.J.J.J.J.g q < q $.f.h.u.5.5.5.5.7.7.a 2 q a 4 5 J.J.J.J.J.J.J.J.J.J.J.J.J.J.J.J.J.J.J.J.J.",
"J.J.J.J.J.J.J.J.J.J.J.J.J.J.J.J.J.J.J.J.J.J.J.f g M a O e ;.f.d.1.1.5.5.G % 4 e 5 4 4 J.J.J.J.J.J.J.J.J.J.J.J.J.J.J.J.J.J.J.J.J.",
"J.J.J.J.J.J.J.J.J.J.J.J.J.J.J.J.J.J.J.J.J.J.J.f g M F f $ o d ^ 5.7.5.;.5 4 5 a e e 4 J.J.J.J.J.J.J.J.J.J.J.J.J.J.J.J.J.J.J.J.J.",
"J.J.J.J.J.J.J.J.J.J.J.J.J.J.J.J.J.J.J.J.J.J.J.f g M M d q q q < 5 G 7.n % 5 e 5 a a < J.J.J.J.J.J.J.J.J.J.J.J.J.J.J.J.J.J.J.J.J.",
"J.J.J.J.J.J.J.J.J.J.J.J.J.J.J.J.J.J.J.J.J.J.J.g g M M d q 4 M G d 4 4 < 4 q q 2 5 q % J.J.J.J.J.J.J.J.J.J.J.J.J.J.J.J.J.J.J.J.J.",
"J.J.J.J.J.J.J.J.J.J.J.J.J.J.J.J.J.J.J.J.J.J.J.M M M M d q q f g n G 4 + 4 a 5 < 4 4 % J.J.J.J.J.J.J.J.J.J.J.J.J.J.J.J.J.J.J.J.J.",
"J.J.J.J.J.J.J.J.J.J.J.J.J.J.J.J.J.J.J.J.J.J.J.n g g M d q < g M n g a a q 5 2 < 4 2 % J.J.J.J.J.J.J.J.J.J.J.J.J.J.J.J.J.J.J.J.J.",
"J.J.J.J.J.J.J.J.J.J.J.J.J.J.J.J.J.J.J.J.J.J.J.M g f M d q q g M n g a e 5 2 < % < < < J.J.J.J.J.J.J.J.J.J.J.J.J.J.J.J.J.J.J.J.J.",
"J.J.J.J.J.J.J.J.J.J.J.J.J.J.J.J.J.J.J.J.J.J.J.M g f M d q q g M n M f 5 4 4 < % % < 2 J.J.J.J.J.J.J.J.J.J.J.J.J.J.J.J.J.J.J.J.J.",
"J.J.J.J.J.J.J.J.J.J.J.J.J.J.J.J.J.J.J.J.J.J.J.g g f g d < % g M n F f 4 5 2 < % < 2 < J.J.J.J.J.J.J.J.J.J.J.J.J.J.J.J.J.J.J.J.J.",
"J.J.J.J.J.J.J.J.J.J.J.J.J.J.J.J.J.J.J.J.J.J.J.f a r f a q $ f M n M a < 4 < % % 4 4 2 J.J.J.J.J.J.J.J.J.J.J.J.J.J.J.J.J.J.J.J.J.",
"J.J.J.J.J.J.J.J.J.J.J.J.J.J.J.J.J.J.J.J.J.J.J.a a a f a q $ g g f M a 2 < < < 4 5 5 4 J.J.J.J.J.J.J.J.J.J.J.J.J.J.J.J.J.J.J.J.J.",
"J.J.J.J.J.J.J.J.J.J.J.J.J.J.J.J.J.J.J.J.J.J.J.e q a M q < % f M f n a < # % 4 5 a e e J.J.J.J.J.J.J.J.J.J.J.J.J.J.J.J.J.J.J.J.J.",
"J.J.J.J.J.J.J.J.J.J.J.J.J.J.J.J.J.J.J.J.J.J.J.a a f M a < % g n f g a 2 % 4 5 a a a a J.J.J.J.J.J.J.J.J.J.J.J.J.J.J.J.J.J.J.J.J.",
"J.J.J.J.J.J.J.J.J.J.J.J.J.J.J.J.J.J.J.J.J.J.J.J.f d q q 2 # g n f g a 4 5 4 4 a e 4 4 4 J.J.J.J.J.J.J.J.J.J.J.J.J.J.J.J.J.J.J.J.",
"J.J.J.J.J.J.J.J.J.J.J.J.J.J.J.J.J.J.J.J.J.J.J.J.J.s 4 % $ % g M d n 5 5 2 2 5 a 4 < 4 J.J.J.J.J.J.J.J.J.J.J.J.J.J.J.J.J.J.J.J.J.",
"J.J.J.J.J.J.J.J.J.J.J.J.J.J.J.J.J.J.J.J.J.J.J.J.J.J.r w % $ q f f d 5 5 < 2 5 5 < J.J.J.J.J.J.J.J.J.J.J.J.J.J.J.J.J.J.J.J.J.J.J.",
"J.J.J.J.J.J.J.J.J.J.J.J.J.J.J.J.J.J.J.J.J.J.J.J.J.5 r t r q % e n a 5 5 < 4 4 ; + J.J.J.J.J.J.J.J.J.J.J.J.J.J.J.J.J.J.J.J.J.J.J.",
"J.J.J.J.J.J.J.J.J.J.J.J.J.J.J.J.J.J.J.J.J.J.J.J.J.e 3 3 r t r e d a 5 % < < # O O J.J.J.J.J.J.J.J.J.J.J.J.J.J.J.J.J.J.J.J.J.J.J.",
"J.J.J.J.J.J.J.J.J.J.J.J.J.J.J.J.J.J.J.J.J.J.J.J.J.k l a > 5 r r 7 a w 2 + # + o O J.J.J.J.J.J.J.J.J.J.J.J.J.J.J.J.J.J.J.J.J.J.J.",
"J.J.J.J.J.J.J.J.J.J.J.J.J.J.J.J.J.J.J.J.J.J.J.J.J.k #.=.H q 1 3 e e f w O # + $ & J.J.J.J.J.J.J.J.J.J.J.J.J.J.J.J.J.J.J.J.J.J.J.",
"J.J.J.J.J.J.J.J.J.J.J.J.J.J.J.J.J.J.J.J.J.J.J.J.J.k K #.#.@.h e 1 6 r 5 O o % u i J.J.J.J.J.J.J.J.J.J.J.J.J.J.J.J.J.J.J.J.J.J.J.",
"J.J.J.J.J.J.J.J.J.J.J.J.J.J.J.J.J.J.J.J.J.J.J.J.J.J.@.@.k O.+.@.H e 3 1 o o & u i J.J.J.J.J.J.J.J.J.J.J.J.J.J.J.J.J.J.J.J.J.J.J.",
"J.J.J.J.J.J.J.J.J.J.J.J.J.J.J.J.J.J.J.J.J.J.J.J.J.J.J.J.J.l O.+.#.*.K 4 O & * * i J.J.J.J.J.J.J.J.J.J.J.J.J.J.J.J.J.J.J.J.J.J.J.",
"J.J.J.J.J.J.J.J.J.J.J.J.J.J.J.J.J.J.J.J.J.J.J.J.J.J.J.J.J.J.k k l &.&.j & u i i i J.J.J.J.J.J.J.J.J.J.J.J.J.J.J.J.J.J.J.J.J.J.J.",
"J.J.J.J.J.J.J.J.J.J.J.J.J.J.J.J.J.J.J.J.J.J.J.J.J.J.J.J.J.J.J.J.k @.@.j u i i J.J.J.J.J.J.J.J.J.J.J.J.J.J.J.J.J.J.J.J.J.J.J.J.J.",
"J.J.J.J.J.J.J.J.J.J.J.J.J.J.J.J.J.J.J.J.J.J.J.J.J.J.J.J.J.J.J.J.J.J.J.j 0 J.J.J.J.J.J.J.J.J.J.J.J.J.J.J.J.J.J.J.J.J.J.J.J.J.J.J."
};
